<?xml version="1.0" standalone="no"?>
<!DOCTYPE svg PUBLIC "-//W3C//DTD SVG 20010904//EN"
 "http://www.w3.org/TR/2001/REC-SVG-20010904/DTD/svg10.dtd">
<svg version="1.0" xmlns="http://www.w3.org/2000/svg"
 width="900.000000pt" height="900.000000pt" viewBox="0 0 900.000000 900.000000"
 preserveAspectRatio="xMidYMid meet">
<metadata>
Created by potrace 1.14, written by Peter Selinger 2001-2017
</metadata>
<g transform="translate(0.000000,900.000000) scale(0.100000,-0.100000)"
fill="#000000" stroke="none">
<path d="M2549 7496 c-3 -3 -22 -6 -43 -8 -20 -1 -39 -5 -41 -9 -2 -3 -18 -5
-34 -4 -17 1 -28 -2 -25 -7 3 -4 -2 -8 -10 -8 -28 0 -139 -42 -226 -84 -176
-87 -326 -213 -432 -361 -23 -33 -46 -61 -50 -63 -4 -2 -8 -8 -8 -14 0 -6 -13
-32 -29 -57 -60 -98 -124 -294 -136 -419 -3 -26 -7 -65 -10 -87 -4 -34 -6 -83
-5 -170 1 -90 2 -273 1 -285 0 -8 0 -53 0 -100 0 -112 0 -89 0 -304 0 -104 2
-193 5 -197 2 -4 0 -10 -5 -13 -6 -4 -6 -18 -1 -35 4 -15 5 -33 1 -39 -3 -5
-4 -360 -1 -787 3 -427 3 -778 1 -780 -3 -4 -4 -162 0 -181 1 -5 1 -13 0 -19
-1 -5 -1 -109 -1 -230 1 -121 1 -227 1 -235 -2 -92 2 -325 5 -360 2 -25 6 -65
8 -90 2 -25 7 -57 10 -72 3 -16 8 -38 10 -50 3 -13 9 -38 15 -56 5 -18 11 -36
12 -40 1 -4 5 -17 10 -30 5 -13 9 -25 9 -26 0 -2 16 -38 35 -80 19 -42 34 -79
34 -82 0 -4 3 -10 8 -13 4 -3 31 -40 58 -81 90 -135 267 -296 403 -366 31 -16
59 -32 60 -36 2 -5 10 -8 18 -8 7 0 29 -9 49 -20 19 -11 35 -18 35 -16 0 2 30
-7 68 -20 37 -13 77 -24 90 -24 12 0 22 -3 22 -7 0 -5 12 -10 28 -11 59 -8
3976 -11 3986 -4 6 5 23 8 39 7 15 0 27 3 27 9 0 5 3 7 6 4 3 -3 32 2 64 12
32 10 61 15 64 12 3 -3 6 0 6 6 0 7 3 12 8 11 25 -4 252 107 252 123 0 5 4 7
8 4 5 -3 20 6 35 20 14 13 30 24 34 24 4 0 24 15 44 33 l36 32 776 0 c428 0
777 3 777 7 0 5 5 7 12 6 15 -4 16 44 1 49 -8 3 -11 -4 -8 -17 3 -13 0 -18 -7
-14 -7 5 -8 2 -3 -6 6 -9 4 -11 -5 -5 -9 6 -11 4 -5 -6 7 -11 6 -12 -6 -3 -8
6 -22 10 -32 9 -9 -2 -15 1 -12 5 3 5 1 11 -5 15 -6 4 -8 11 -5 16 3 5 -2 6
-12 3 -16 -6 -15 -4 2 10 11 10 14 14 6 10 -8 -4 -2 9 13 29 16 20 31 37 33
37 3 0 -1 -8 -8 -17 -12 -14 -12 -16 1 -9 8 4 4 -2 -10 -14 -25 -21 -25 -21
-1 -10 18 10 22 9 16 -1 -6 -8 -4 -10 5 -4 8 5 11 4 7 -1 -3 -5 3 -10 13 -10
10 0 16 5 14 11 -3 5 1 2 9 -8 11 -14 16 -15 21 -5 3 7 3 1 1 -14 -2 -15 0
-30 3 -32 4 -2 7 99 7 224 -1 224 -1 230 -23 250 -12 11 -22 16 -22 10 0 -5
-5 -10 -11 -10 -5 0 -8 3 -6 8 3 4 -19 7 -49 8 -30 0 -54 -3 -54 -8 0 -4 -5
-8 -11 -8 -5 0 -8 4 -5 9 7 10 -13 9 -31 -2 -6 -4 -13 -3 -15 3 -2 6 -8 2 -15
-8 -11 -18 -8 -19 33 -17 46 3 64 -9 45 -28 -9 -9 -11 -8 -6 6 8 19 -10 24
-21 5 -5 -7 -3 -8 7 -3 11 7 12 6 3 -6 -6 -8 -10 -22 -9 -32 2 -10 -1 -14 -7
-11 -6 4 -8 3 -5 -3 4 -6 -3 -9 -18 -8 -16 2 -22 -1 -19 -10 8 -20 -15 -28
-34 -13 -16 12 -16 11 -2 -7 14 -19 14 -19 -2 -6 -10 7 -15 17 -12 22 3 5 0 9
-5 9 -16 0 -13 -16 4 -30 9 -7 13 -20 10 -29 -3 -8 -3 -12 1 -8 4 4 13 2 19
-3 9 -7 17 -5 26 7 8 9 9 14 3 10 -6 -3 -11 0 -11 8 0 8 5 11 10 8 6 -3 7 -2
4 4 -4 6 3 9 18 8 16 -2 22 1 19 10 -8 20 15 28 34 13 16 -12 16 -11 2 7 -14
19 -14 19 2 6 10 -7 15 -17 12 -22 -3 -5 0 -9 5 -9 15 0 14 15 -3 29 -17 14
-18 53 -1 43 5 -3 1 7 -9 23 -19 30 -19 30 0 15 18 -14 18 -14 4 5 -14 19 -14
20 6 2 11 -9 24 -14 29 -10 4 5 3 -2 -4 -14 -14 -28 -14 -32 4 -29 18 3 33 16
17 16 -6 0 -10 9 -9 20 1 11 5 20 10 20 5 0 6 -8 3 -17 -4 -10 -4 -14 0 -11 4
4 15 3 25 -3 24 -12 25 -1 2 18 -17 13 -16 13 2 5 11 -6 24 -10 30 -10 5 0 11
-6 13 -14 2 -8 0 -8 -7 2 -8 11 -10 6 -7 -21 l4 -36 -44 2 c-29 1 -41 -2 -37
-9 4 -6 -2 -4 -13 4 -17 13 -18 13 -8 0 19 -26 13 -47 -13 -44 -20 2 -21 0
-13 -17 13 -23 22 -25 14 -4 -8 20 10 19 26 0 7 -9 19 -14 26 -11 7 3 11 -2 9
-12 -1 -9 5 -25 13 -35 14 -16 14 -20 -8 -40 l-24 -22 19 23 c15 18 16 25 5
35 -10 9 -11 9 -5 -1 4 -8 -1 -22 -11 -33 -24 -26 -9 -37 18 -13 l23 19 -19
-23 c-11 -12 -25 -21 -31 -18 -6 2 -19 -2 -30 -10 -10 -8 -14 -14 -9 -14 6 0
16 6 24 12 12 11 12 10 0 -5 -7 -10 -20 -15 -29 -12 -11 3 -9 0 4 -11 l20 -17
-20 6 c-17 6 -18 5 -4 -5 16 -11 16 -13 0 -27 -9 -9 -11 -12 -4 -7 25 17 27
-4 3 -27 l-24 -22 19 25 c20 25 20 25 0 9 -20 -17 -58 -22 -49 -7 3 4 -2 5
-10 2 -9 -3 -16 -10 -16 -16 0 -5 -4 -6 -10 -3 -12 7 -14 26 -2 24 27 -5 35 2
16 15 -15 11 -22 12 -33 3 -10 -8 -8 -2 3 18 l18 30 -20 -25 c-16 -19 -18 -28
-9 -39 10 -12 9 -13 -3 -7 -8 5 -1 -4 16 -20 16 -16 22 -23 12 -15 -25 20 -35
5 -13 -19 18 -19 18 -22 2 -37 -13 -14 -17 -14 -17 -3 0 11 -3 11 -12 2 -7 -7
-17 -12 -22 -12 -6 0 -4 5 4 10 8 5 10 10 4 10 -6 0 -14 -3 -18 -7 -10 -11
-46 -11 -39 0 4 6 1 7 -8 1 -9 -5 -7 3 5 21 19 30 19 30 0 15 -18 -14 -18 -14
-5 2 7 10 17 15 22 12 5 -3 9 0 9 5 0 16 -11 13 -34 -6 -12 -12 -9 -4 8 19 16
21 31 38 33 38 3 0 -1 -8 -8 -17 -8 -9 3 -4 24 11 20 16 37 31 37 33 0 3 -7 0
-15 -7 -9 -7 -26 -14 -38 -14 -12 -1 -29 -6 -37 -11 -13 -8 -13 -7 0 10 12 15
7 14 -19 -5 -19 -13 -32 -19 -28 -13 4 6 -6 19 -21 29 -26 17 -27 17 -13 -2
14 -18 14 -18 -3 -3 -17 16 -16 18 7 42 27 30 29 68 4 97 -22 26 -21 30 3 25
12 -2 18 0 14 6 -3 6 -8 8 -12 5 -3 -3 -11 2 -18 12 -10 14 -15 15 -26 4 -11
-11 -10 -12 5 -7 9 4 17 3 17 -3 0 -16 -18 -24 -25 -12 -5 8 -11 7 -21 -1 -12
-10 -13 -8 -8 7 5 13 -4 8 -27 -14 -43 -43 -46 -72 -14 -119 26 -39 20 -68
-10 -43 -8 7 -15 8 -15 2 0 -5 7 -15 15 -22 20 -16 48 5 40 30 -4 13 0 18 20
18 26 0 33 -12 13 -24 -6 -4 -8 -3 -5 3 3 5 0 10 -8 10 -11 0 -12 -4 -4 -14 9
-9 8 -13 0 -13 -7 0 -9 -5 -5 -11 4 -8 9 -7 15 2 5 8 9 10 9 5 0 -5 -8 -19
-17 -30 l-18 -21 25 20 25 20 -19 -22 c-21 -25 -41 -31 -33 -10 3 9 -4 13 -23
13 -19 0 -26 -4 -23 -13 8 -21 -12 -15 -33 10 l-19 22 24 -20 24 -20 -23 33
c-26 35 -32 40 -24 17 4 -8 1 -15 -6 -15 -6 0 -9 4 -5 9 3 5 0 13 -6 17 -8 5
-9 3 -4 -7 8 -12 6 -12 -8 -1 -9 8 -22 10 -28 6 -8 -5 -9 -3 -4 7 7 11 6 12
-7 2 -8 -7 -17 -10 -20 -8 -3 3 -13 -7 -23 -22 -18 -27 -18 -28 1 -13 18 14
18 14 5 -2 -7 -10 -17 -15 -22 -12 -5 3 -9 0 -9 -5 0 -16 11 -14 32 6 33 29
24 9 -11 -27 -19 -19 -28 -26 -21 -15 14 20 14 20 -7 2 -12 -11 -27 -16 -34
-11 -8 5 -10 3 -4 -7 8 -12 6 -12 -8 0 -20 16 -23 25 -4 15 17 -10 -1 8 -37
34 -16 12 -25 22 -21 22 5 0 17 -7 27 -17 25 -22 36 -8 13 17 -10 11 -15 23
-12 27 4 3 2 13 -5 20 -8 10 -8 17 -1 21 6 4 9 24 8 45 l-3 38 24 -28 c24 -28
28 -37 25 -60 -1 -7 3 -13 9 -13 5 0 10 5 10 10 0 6 5 10 10 10 6 0 9 -5 8
-11 -2 -6 3 -14 10 -16 7 -3 10 1 6 10 -3 8 -1 18 5 22 6 3 11 11 11 16 0 6
-4 8 -9 4 -17 -10 -21 12 -5 26 8 7 14 8 13 3 -3 -17 13 -54 21 -49 5 3 11 1
15 -5 4 -6 11 -7 17 -4 7 4 8 2 4 -4 -4 -7 -2 -12 3 -12 6 0 11 6 11 13 0 8 4
7 10 -3 9 -13 14 -7 11 13 0 4 2 6 6 5 18 -6 48 29 48 54 -1 28 -34 80 -46 72
-4 -2 -12 4 -18 13 -8 14 -10 15 -11 3 0 -13 -1 -13 -10 0 -8 13 -10 12 -10
-2 0 -10 -4 -18 -9 -18 -5 0 -8 8 -7 17 1 20 -26 25 -30 5 -1 -7 0 -8 3 -2 2
5 9 10 15 10 6 0 6 -6 -2 -15 -7 -8 -9 -15 -5 -15 5 0 0 -9 -10 -20 -10 -11
-14 -20 -10 -20 4 0 0 -9 -10 -20 -31 -34 -45 -1 -15 35 19 22 23 55 7 55 -7
0 -8 3 -2 8 14 10 17 32 5 32 -5 0 -10 -6 -10 -12 0 -8 -3 -9 -8 -3 -4 6 -18
10 -32 10 -14 0 -29 2 -35 5 -25 12 -45 8 -55 -10 -6 -11 -8 -26 -4 -32 4 -6
3 -8 -4 -4 -6 3 -13 2 -17 -4 -3 -5 -2 -10 3 -10 14 0 21 -25 12 -40 -4 -7
-13 -9 -19 -5 -9 5 -9 10 0 21 10 12 9 13 -5 8 -9 -3 -16 -1 -16 5 0 6 -4 10
-9 9 -5 -2 -16 6 -25 17 -15 19 -15 19 -9 -5 6 -22 4 -23 -9 -12 -12 10 -20 8
-42 -13 -28 -26 -42 -33 -31 -15 3 6 0 10 -7 10 -9 0 -9 3 2 10 8 5 12 10 8
11 -25 5 -34 4 -41 -6 -4 -5 -5 2 -3 18 4 25 2 27 -21 24 -16 -2 -27 -11 -29
-21 -1 -10 -10 -26 -20 -37 -15 -16 -15 -19 -2 -19 9 0 18 -6 20 -12 6 -18 2
-70 -7 -91 -7 -16 -8 -16 -19 -2 -10 15 -12 14 -12 -4 0 -11 5 -17 10 -14 5 4
6 1 1 -7 -5 -8 -4 -11 3 -6 6 3 15 -1 20 -10 6 -11 11 -13 16 -5 4 6 2 11 -5
11 -7 0 -9 3 -6 6 4 4 15 1 24 -7 17 -13 17 -13 3 6 -14 19 -14 19 4 5 18 -14
19 -14 5 7 -9 15 -16 19 -21 10 -4 -6 -10 -8 -15 -4 -12 13 19 27 37 17 9 -5
22 -5 30 0 8 5 18 6 24 3 5 -4 7 1 3 10 -4 11 -2 14 9 10 18 -7 18 -13 -3 -30
-12 -10 -13 -12 -3 -8 8 4 6 0 -4 -9 -10 -8 -22 -13 -26 -11 -4 3 -7 -3 -6
-13 0 -10 -6 -17 -14 -16 -17 1 -25 -32 -9 -41 5 -4 6 2 2 11 -5 14 -3 16 11
11 12 -5 15 -3 11 6 -4 6 1 3 11 -8 16 -20 17 -20 10 0 -4 11 -3 16 1 11 12
-12 11 -65 -1 -63 -6 1 -10 -4 -8 -10 1 -7 -2 -13 -8 -13 -5 0 -10 5 -10 10 0
10 -41 7 -60 -5 -6 -4 -10 -3 -9 2 5 29 -2 33 -33 17 l-32 -17 18 28 c12 18
13 25 5 20 -8 -3 -3 4 11 16 15 13 18 20 8 16 -13 -4 -15 0 -13 21 2 21 1 23
-9 12 -13 -18 -36 -24 -36 -10 0 5 8 10 17 10 19 0 9 13 -12 16 -9 1 -12 -2
-8 -9 4 -7 -2 -5 -12 3 -10 8 -16 10 -12 3 6 -10 2 -11 -32 -4 -2 1 3 9 10 18
12 14 12 16 -1 8 -21 -13 -94 -14 -102 -1 -6 8 -8 8 -8 0 0 -7 12 -20 28 -30
26 -17 27 -17 12 2 -14 18 -14 18 2 5 10 -7 15 -17 12 -22 -3 -5 -1 -9 5 -9 5
0 13 5 16 10 4 6 11 7 17 4 7 -5 8 -2 3 6 -5 8 -4 11 3 6 6 -3 9 -16 7 -27 -4
-18 -2 -19 13 -7 15 12 16 11 3 -4 -7 -10 -17 -15 -22 -12 -5 3 -9 0 -9 -5 0
-16 11 -14 32 6 14 13 21 14 30 5 9 -9 9 -15 -1 -24 -10 -11 -11 -10 -6 5 8
18 -9 24 -20 7 -3 -5 -15 -15 -27 -21 -16 -9 -19 -8 -12 3 6 9 3 9 -10 -2 -16
-13 -20 -12 -36 8 -15 18 -19 19 -24 6 -3 -8 -2 -13 3 -10 5 3 14 0 20 -8 8
-10 8 -16 -3 -25 -11 -9 -16 -9 -22 0 -5 9 -10 7 -20 -5 -8 -11 -14 -13 -19
-7 -3 6 -1 11 5 11 6 0 8 5 4 11 -4 8 -9 7 -16 -2 -7 -10 -8 -9 -4 6 5 17 4
18 -7 5 -11 -13 -37 -25 -37 -17 0 2 14 14 31 26 18 13 28 17 24 10 -6 -11 -5
-12 5 -2 23 21 2 28 -22 7 -13 -12 -18 -13 -13 -4 7 12 3 11 -18 -2 -35 -23
-40 -23 -31 5 8 26 2 22 -16 -12 -6 -13 -8 -21 -3 -18 5 4 10 0 10 -7 0 -7
-11 -12 -24 -11 -22 1 -34 20 -13 20 6 0 10 3 10 7 0 14 43 57 52 52 4 -3 3
-15 -3 -27 -10 -21 -10 -21 5 -3 9 11 14 28 10 38 -4 13 0 18 13 18 11 0 14 3
7 8 -9 5 -8 10 1 19 11 10 15 10 18 0 5 -11 11 18 8 36 -1 5 3 6 9 2 5 -3 10
3 10 14 0 11 6 23 12 27 7 4 10 4 6 -1 -4 -4 -2 -15 5 -23 8 -10 8 -13 1 -9
-7 4 -15 0 -18 -9 -9 -24 -7 -27 10 -14 12 11 15 11 12 -1 -2 -8 3 -13 12 -10
8 2 25 3 38 3 18 0 20 3 11 14 -6 8 -16 11 -22 7 -6 -4 -7 -1 -1 8 12 21 14
69 2 69 -6 0 -8 6 -5 14 3 7 0 19 -6 25 -9 10 -9 12 3 9 8 -2 14 3 12 10 -1 8
2 11 7 8 5 -4 12 -2 16 4 3 5 1 10 -4 10 -21 0 -11 21 14 30 26 10 32 24 15
35 -6 4 -8 11 -4 16 3 5 10 7 15 4 5 -4 9 -1 9 4 0 6 -6 11 -12 11 -9 0 -10 3
-2 8 6 4 10 15 9 24 -2 10 2 15 9 12 8 -3 13 6 13 23 2 37 8 69 21 118 26 95
30 260 32 1290 1 594 2 1085 2 1090 0 6 -1 181 -1 390 -1 209 -1 549 -1 755
-1 206 -2 389 -5 405 -2 17 -6 58 -9 92 -13 151 -100 392 -182 499 -13 17 -24
36 -24 41 0 6 -7 13 -15 17 -8 3 -15 10 -15 16 0 5 -8 18 -18 28 -9 10 -41 44
-70 75 -30 31 -58 57 -63 57 -6 0 -7 5 -4 10 3 6 0 10 -9 10 -8 0 -16 3 -18 8
-17 39 -312 207 -380 216 -3 1 -10 4 -14 9 -4 4 -18 7 -30 7 -13 0 -25 4 -28
8 -2 4 -19 9 -37 10 -17 1 -37 6 -43 9 -6 4 -18 10 -26 12 -20 7 -3955 13
-3961 7z m2181 -599 c19 -4 58 -9 85 -12 73 -9 107 -14 135 -20 14 -3 36 -7
50 -10 85 -16 276 -73 365 -110 144 -59 359 -187 455 -271 91 -80 230 -228
230 -244 0 -5 4 -10 8 -12 12 -4 72 -95 72 -107 0 -6 4 -11 9 -11 9 0 121
-217 121 -235 0 -5 6 -21 13 -35 8 -14 19 -48 26 -75 7 -28 15 -57 17 -65 17
-58 43 -197 39 -207 -2 -7 0 -15 5 -18 5 -3 7 -11 4 -18 -3 -9 -102 -12 -417
-12 -226 0 -417 4 -423 8 -6 3 -22 35 -34 69 -84 230 -224 384 -459 505 -35
18 -70 33 -77 33 -8 0 -14 5 -14 12 0 6 -3 9 -6 5 -3 -3 -18 -1 -33 5 -14 5
-33 11 -41 13 -8 2 -42 11 -75 20 -150 40 -518 38 -630 -4 -11 -4 -58 -20
-105 -36 -46 -15 -108 -41 -137 -57 -29 -16 -53 -27 -53 -24 0 3 -12 -6 -26
-19 -15 -14 -33 -25 -40 -25 -7 0 -14 -4 -16 -9 -1 -6 -29 -30 -62 -55 -32
-26 -56 -46 -53 -46 2 0 -19 -24 -47 -54 -55 -59 -123 -150 -118 -160 1 -4 -3
-13 -10 -22 -7 -8 -17 -20 -23 -27 -9 -11 -47 -84 -50 -97 -1 -3 -8 -21 -17
-40 -12 -29 -38 -101 -43 -120 -1 -3 -5 -12 -8 -20 -23 -55 -74 -309 -83 -415
-9 -103 -12 -359 -4 -380 4 -10 4 -34 0 -52 -4 -17 -4 -33 0 -35 4 -2 10 -32
13 -68 4 -36 11 -83 16 -105 6 -22 13 -56 16 -75 20 -115 120 -369 188 -475
163 -258 319 -393 597 -519 20 -9 47 -18 59 -21 13 -2 38 -9 56 -15 138 -46
402 -48 580 -4 17 3 35 9 40 13 6 3 15 6 21 7 18 3 139 47 144 53 3 3 21 14
40 23 62 30 115 63 127 78 7 8 13 11 13 5 0 -7 3 -7 8 0 4 6 27 26 52 47 68
55 100 87 160 158 63 73 130 179 130 204 0 9 4 16 9 16 17 0 92 313 78 327 -2
2 -226 5 -498 6 l-494 2 0 373 0 372 876 0 876 0 0 -1180 -1 -1180 -267 0
c-147 0 -270 3 -273 8 -2 4 -7 28 -11 52 -4 25 -13 72 -20 105 -7 33 -13 67
-14 75 0 8 -5 35 -10 60 -17 84 -32 165 -37 205 -9 67 -17 71 -50 23 -39 -57
-48 -68 -125 -157 -109 -125 -167 -177 -293 -262 -131 -88 -279 -153 -436
-190 -69 -16 -56 -14 -120 -23 -30 -4 -69 -10 -86 -12 -17 -3 -80 -6 -142 -8
-61 -3 -116 -7 -122 -11 -5 -3 -10 -3 -10 2 0 4 -35 9 -77 10 -43 2 -91 5
-108 7 -16 3 -52 8 -80 11 -27 4 -97 18 -155 32 -58 14 -112 26 -120 28 -8 1
-22 5 -30 8 -42 17 -76 30 -85 33 -54 14 -277 121 -283 136 -2 5 -8 8 -13 8
-9 0 -176 106 -189 120 -3 3 -34 29 -70 59 -36 30 -79 69 -97 88 -18 18 -37
33 -42 33 -6 0 -11 4 -11 9 0 5 -12 22 -27 38 -53 55 -113 126 -113 134 0 4
-4 9 -9 11 -15 5 -179 257 -193 295 -7 18 -16 33 -20 33 -4 0 -8 4 -8 10 0 5
-15 41 -34 80 -19 39 -40 87 -47 108 -6 20 -16 43 -22 50 -5 6 -6 12 -1 12 4
0 3 5 -4 12 -7 7 -12 20 -12 30 0 10 -5 18 -11 18 -5 0 -7 5 -4 10 3 6 3 16
-2 23 -4 6 -8 17 -10 22 -7 35 -13 55 -26 95 -12 38 -28 107 -42 185 -2 11 -4
20 -5 20 -3 0 -17 87 -24 155 -3 19 -8 62 -12 95 -10 76 -10 502 0 575 4 30 9
73 11 95 3 22 9 65 15 95 6 30 13 69 15 86 7 47 62 256 84 316 10 29 25 69 32
88 7 19 18 49 25 65 7 17 12 33 11 36 -1 4 7 16 17 28 11 12 16 21 13 21 -9 0
59 129 106 203 20 31 37 59 37 62 0 9 125 172 184 240 34 39 83 90 110 115 28
25 57 52 66 60 30 28 105 86 155 120 28 19 52 36 55 40 5 6 56 36 150 87 68
38 226 105 300 128 30 9 62 19 70 22 8 3 20 7 27 9 6 1 51 11 100 23 48 11
106 23 128 26 22 3 49 7 60 10 11 2 54 7 95 11 41 3 76 8 78 9 6 5 388 -3 422
-8z m3774 -4585 c3 -5 -1 -9 -9 -9 -8 0 -12 4 -9 9 3 4 7 8 9 8 2 0 6 -4 9 -8z
m86 2 c0 -8 -19 -13 -24 -6 -3 5 1 9 9 9 8 0 15 -2 15 -3z m95 -108 c0 -46 -3
-62 -11 -55 -6 5 -14 6 -17 2 -10 -9 -9 -25 1 -19 4 2 14 1 22 -4 11 -7 11
-11 1 -24 -8 -9 -10 -16 -5 -16 5 0 9 -22 10 -50 0 -43 -1 -47 -13 -32 -12 16
-13 16 -7 0 4 -11 1 -18 -6 -18 -6 0 -9 -4 -5 -10 3 -5 13 -7 23 -4 13 5 14 4
3 -4 -7 -5 -9 -12 -4 -15 6 -4 9 -19 7 -34 -3 -36 -2 -35 -16 -26 -7 4 -20 8
-28 8 -8 0 -16 10 -16 23 -2 35 -3 36 -24 17 -11 -10 -20 -16 -21 -14 -10 41
-3 60 31 88 38 30 46 55 26 80 -6 8 -11 24 -11 35 0 14 -6 20 -17 18 -18 -3
-30 29 -17 49 4 8 25 14 46 14 32 0 38 3 39 23 2 26 3 32 7 32 1 0 2 -29 2
-64z m-152 37 c-3 -7 -8 -13 -12 -13 -4 0 -8 6 -8 13 0 8 6 14 13 14 7 0 10
-6 7 -14z m-1128 -43 c3 -5 1 -10 -4 -10 -6 0 -11 5 -11 10 0 6 2 10 4 10 3 0
8 -4 11 -10z m1085 0 c0 -5 -4 -10 -10 -10 -5 0 -10 5 -10 10 0 6 5 10 10 10
6 0 10 -4 10 -10z m-43 -45 c0 -8 -4 -12 -9 -9 -4 3 -8 9 -8 15 0 5 4 9 8 9 5
0 9 -7 9 -15z m-545 -40 c3 3 5 -2 5 -10 0 -8 -4 -12 -9 -9 -4 3 -8 1 -8 -4 0
-5 -6 -9 -13 -9 -7 0 -13 11 -13 23 0 18 3 21 17 14 9 -5 18 -7 21 -5z m-265
-57 c17 -28 13 -45 -11 -45 -19 0 -22 4 -20 26 3 32 2 31 13 31 6 0 13 -6 18
-12z m103 2 c10 -6 11 -10 3 -10 -7 0 -13 -5 -13 -11 0 -5 4 -7 10 -4 6 3 7
-1 4 -9 -7 -18 -34 -22 -34 -5 0 5 -4 8 -8 5 -4 -2 -8 4 -8 14 0 10 4 16 8 14
4 -3 8 0 8 5 0 13 10 14 30 1z m324 -12 c-4 -14 -2 -18 5 -14 7 5 8 1 4 -9 -5
-13 -7 -14 -14 -3 -8 12 -13 4 -10 -16 1 -5 -4 -4 -12 2 -10 9 -16 54 -8 57 1
1 10 1 21 2 17 2 20 -2 14 -19z m160 11 c-2 -4 0 -11 6 -14 13 -8 -6 -35 -25
-35 -18 0 -28 30 -15 45 10 13 42 17 34 4z m-408 -30 c0 -8 -3 -19 -7 -24 -5
-6 5 -23 22 -39 16 -15 26 -32 23 -38 -3 -5 2 -19 13 -31 l18 -22 -23 19 c-17
15 -25 17 -34 8 -8 -8 -7 -13 5 -18 9 -3 27 -20 40 -38 l25 -32 -43 1 c-23 0
-50 6 -59 14 -13 11 -17 11 -21 -1 -6 -15 -127 -19 -142 -5 -4 5 -2 7 6 5 9
-2 15 7 16 27 3 32 -11 58 -26 49 -17 -10 -9 2 25 39 19 21 37 33 40 28 6 -9
16 -9 55 1 25 6 49 30 44 44 -3 8 1 14 8 14 11 0 11 3 -1 11 -13 9 -13 10 0 6
8 -2 15 -10 16 -18z m-435 -92 c-7 -7 -14 -8 -21 -1 -6 6 -2 10 12 11 16 2 18
-1 9 -10z m869 -21 c-8 -8 -13 -7 -20 4 -12 20 -1 33 16 19 11 -9 12 -15 4
-23z m214 16 c3 -5 -1 -9 -9 -9 -8 0 -12 4 -9 9 3 4 7 8 9 8 2 0 6 -4 9 -8z
m-1010 -18 c3 -7 14 -11 25 -9 22 4 23 -21 0 -36 -12 -7 -12 -9 1 -9 10 0 11
-3 4 -8 -6 -4 -10 -14 -9 -22 2 -12 -12 -15 -71 -15 -61 -1 -72 1 -61 12 7 7
24 15 36 18 13 2 32 12 43 22 17 16 18 16 12 0 -8 -22 9 -22 27 -1 11 14 10
19 -10 35 -13 10 -28 16 -34 12 -5 -3 -7 -2 -4 4 9 14 35 12 41 -3z m601 4 c6
-5 22 -18 38 -29 15 -11 25 -25 22 -30 -13 -20 15 -8 29 13 l16 22 16 -22 c14
-21 42 -33 29 -13 -3 5 7 19 22 30 16 11 33 25 40 31 14 12 23 13 22 3 -3 -20
2 -24 16 -13 9 7 18 10 22 7 3 -4 13 -1 22 6 9 6 4 -5 -12 -25 -16 -22 -23
-39 -17 -43 17 -11 11 -27 -7 -21 -15 5 -14 3 2 -9 19 -15 19 -16 -2 -12 -11
1 -28 9 -36 16 -12 10 -17 10 -24 -1 -6 -10 -33 -14 -93 -14 -60 0 -87 4 -93
14 -7 11 -11 11 -24 0 -8 -7 -42 -13 -74 -14 -54 -1 -73 4 -35 10 8 1 31 19
51 39 29 30 33 38 21 43 -9 3 -16 9 -16 13 0 10 53 9 65 -1z m505 -25 c-20
-26 -20 -28 -4 -40 37 -27 24 -38 -42 -38 -50 0 -60 2 -52 12 8 10 6 19 -8 36
l-19 22 22 -18 c12 -11 23 -14 27 -8 4 5 2 12 -4 16 -17 10 -1 24 22 20 29 -6
33 -12 18 -30 -8 -10 -9 -15 -1 -15 6 0 11 4 11 9 0 10 39 61 46 61 3 0 -4
-12 -16 -27z m-1340 -48 c-13 -16 -12 -17 19 -19 37 -2 29 -11 -10 -12 -25 -1
-35 2 -27 7 10 7 10 9 -1 9 -11 0 -9 4 5 15 25 19 30 19 14 0z m310 -25 c0 -5
-2 -10 -4 -10 -3 0 -8 5 -11 10 -3 6 -1 10 4 10 6 0 11 -4 11 -10z"/>
<path d="M8606 2199 c2 -4 -2 -10 -8 -12 -10 -4 -10 -6 0 -6 8 -1 10 -6 6 -13
-4 -7 -4 -10 1 -6 4 4 14 3 22 -3 9 -8 17 -8 26 0 8 6 16 9 18 6 3 -2 5 6 5
18 0 19 -5 22 -37 22 -21 0 -35 -3 -33 -6z m59 -11 c3 -3 -1 -11 -10 -18 -12
-10 -18 -10 -30 0 -8 7 -13 16 -10 19 5 9 42 8 50 -1z"/>
<path d="M8630 2176 c7 -7 13 -7 20 0 6 6 3 10 -10 10 -13 0 -16 -4 -10 -10z"/>
<path d="M8634 2126 c1 -8 7 -20 13 -28 7 -7 11 -21 9 -30 -2 -20 -54 -84 -64
-80 -3 1 -7 -9 -8 -23 -1 -23 1 -24 15 -11 13 12 19 12 34 1 13 -10 15 -14 5
-18 -10 -4 -9 -6 2 -6 13 -1 13 -3 0 -12 -13 -9 -13 -10 1 -6 9 3 21 1 26 -4
7 -7 9 0 9 17 -1 16 -13 36 -31 49 -22 19 -24 23 -9 22 10 -1 19 5 19 13 1 8
6 14 12 13 11 -2 10 53 -1 64 -3 3 -1 12 5 20 6 7 9 14 5 14 -3 1 -9 2 -13 3
-5 1 -13 5 -20 9 -7 4 -10 2 -9 -7z m36 -12 c0 -8 -19 -13 -24 -6 -3 5 1 9 9
9 8 0 15 -2 15 -3z m0 -68 c0 -2 -8 -10 -17 -17 -16 -13 -17 -12 -4 4 13 16
21 21 21 13z m-28 -78 c22 -14 38 -55 16 -42 -5 3 -6 9 -3 14 8 13 -41 40 -52
29 -6 -6 -10 -5 -10 5 0 17 16 15 49 -6z"/>
<path d="M7619 2052 c11 -8 11 -10 0 -14 -10 -3 -9 -6 3 -10 11 -5 15 -2 14
10 -2 9 -9 18 -17 20 -12 3 -12 2 0 -6z"/>
<path d="M7714 2049 c-3 -6 -2 -15 3 -20 5 -5 9 -1 9 11 0 23 -2 24 -12 9z"/>
<path d="M8034 2038 c0 -10 1 -18 3 -18 1 0 7 8 12 18 7 13 6 19 -2 19 -7 0
-13 -9 -13 -19z"/>
<path d="M8195 2050 c-10 -16 7 -31 23 -21 10 6 10 10 -2 20 -10 9 -16 9 -21
1z"/>
<path d="M7776 1969 c-10 -15 -16 -18 -16 -9 0 9 -3 11 -8 5 -9 -13 -41 -13
-62 -1 -8 5 -12 6 -8 1 4 -4 -4 -17 -18 -27 -22 -18 -23 -22 -10 -37 8 -9 13
-30 11 -47 -2 -30 -2 -30 46 -29 26 1 54 7 62 13 10 9 16 9 25 0 7 -7 28 -13
47 -13 34 -1 34 -1 17 19 -9 12 -25 27 -35 34 -18 14 -18 15 2 36 l21 22 -29
28 -29 28 -16 -23z m48 -50 c-9 -10 -20 -16 -24 -14 -13 8 -21 -28 -10 -39 8
-8 9 -6 5 7 -10 26 8 21 39 -11 l27 -29 -24 1 c-14 1 -32 7 -40 14 -10 9 -17
10 -22 2 -3 -6 -11 -8 -16 -5 -5 4 -9 0 -9 -7 0 -9 -3 -9 -10 2 -5 8 -10 10
-10 4 0 -6 -12 -10 -27 -9 -23 1 -28 6 -28 26 0 14 -6 33 -13 41 -10 12 -10
17 0 25 22 17 44 25 25 10 -11 -9 -14 -18 -8 -21 5 -4 16 2 23 12 8 11 24 18
41 17 19 -1 31 5 38 17 10 19 11 19 35 -3 22 -21 23 -24 8 -40z"/>
<path d="M7782 1950 c-7 -11 -20 -17 -31 -15 -11 2 -31 -5 -44 -15 -19 -15
-27 -17 -38 -7 -7 7 -6 3 4 -9 9 -11 15 -30 13 -41 -4 -18 -1 -21 17 -16 12 2
33 6 47 7 19 1 24 8 24 26 0 14 6 31 12 38 15 14 28 16 19 2 -9 -15 1 -12 14
3 8 11 7 18 -7 30 -16 15 -19 15 -30 -3z m33 -10 c3 -5 0 -7 -8 -4 -8 3 -20
-2 -27 -11 -14 -17 -30 -20 -30 -4 0 5 4 8 9 5 5 -3 14 1 21 9 14 17 26 19 35
5z m-58 -48 c-4 -2 -3 -10 3 -17 8 -10 3 -12 -25 -9 -24 2 -33 -1 -29 -8 4 -6
3 -8 -3 -5 -11 7 -11 36 1 55 4 7 12 10 17 7 5 -4 9 -1 9 4 0 6 8 3 18 -6 10
-10 14 -20 9 -21z"/>
<path d="M7705 1900 c-3 -5 0 -12 7 -17 22 -13 36 -11 34 5 -3 17 -33 25 -41
12z m35 -6 c0 -8 -19 -13 -24 -6 -3 5 1 9 9 9 8 0 15 -2 15 -3z"/>
<path d="M7804 1863 c2 -9 11 -17 20 -19 17 -2 17 -2 0 17 -21 23 -23 23 -20
2z"/>
<path d="M7455 1850 c-4 -6 -15 -8 -26 -5 -10 4 -19 2 -19 -4 0 -5 -8 -8 -18
-6 -10 2 -24 0 -31 -4 -7 -5 13 -7 45 -6 45 1 58 5 60 18 3 19 -2 22 -11 7z"/>
<path d="M8020 1905 c8 -10 7 -17 -7 -27 -10 -7 -26 -22 -35 -34 -17 -20 -17
-20 17 -19 19 0 40 6 46 12 9 9 17 9 33 -1 27 -16 161 -15 178 2 9 9 16 8 31
-5 15 -14 18 -14 15 -3 -2 9 3 14 12 12 12 -3 12 -1 3 9 -10 10 -9 16 4 31 18
21 11 37 -10 20 -10 -9 -17 -8 -25 0 -9 9 -12 9 -12 -1 0 -7 -4 -10 -9 -7 -10
7 -46 -18 -47 -33 -1 -6 -2 -16 -3 -23 0 -6 -12 -1 -26 12 l-25 23 -25 -23
c-14 -13 -26 -18 -26 -12 -1 7 -2 17 -3 23 -1 14 -37 40 -47 34 -4 -3 -9 0
-11 7 -2 6 -12 12 -22 14 -13 2 -15 -1 -6 -11z m285 -25 c-10 -11 -15 -20 -11
-20 4 0 4 -5 0 -11 -4 -8 -9 -8 -17 0 -7 7 -14 7 -24 0 -7 -7 -13 -8 -13 -3 0
5 -5 2 -10 -6 -8 -12 -9 -9 -6 10 2 14 9 24 15 23 6 -2 11 2 11 9 0 6 7 3 15
-8 15 -19 15 -19 8 0 -5 15 -3 18 10 13 9 -3 19 -2 22 3 4 6 9 10 12 10 3 0
-2 -9 -12 -20z m-259 -7 c-5 -15 -4 -15 9 1 8 11 15 14 15 8 0 -7 5 -11 11 -9
6 1 13 -9 15 -23 3 -19 2 -22 -6 -10 -5 8 -10 11 -10 6 0 -6 -5 -5 -12 2 -9 9
-15 9 -26 0 -8 -7 -25 -13 -39 -14 l-24 -1 27 29 c31 32 49 37 40 11z m132
-26 c9 -11 5 -13 -18 -13 -23 0 -27 2 -18 13 6 7 14 13 18 13 4 0 12 -6 18
-13z"/>
<path d="M8236 1858 c3 -5 10 -6 15 -3 13 9 11 12 -6 12 -8 0 -12 -4 -9 -9z"/>
<path d="M8016 1861 c-17 -19 -17 -19 0 -17 9 2 18 10 20 19 3 21 1 21 -20 -2z"/>
<path d="M8066 1858 c3 -5 10 -6 15 -3 13 9 11 12 -6 12 -8 0 -12 -4 -9 -9z"/>
<path d="M8488 1878 c8 -8 7 -17 -4 -32 -13 -22 -13 -22 31 -21 24 0 47 4 52
9 4 5 3 6 -4 3 -6 -4 -13 -1 -16 5 -3 10 -7 10 -19 0 -13 -10 -17 -10 -21 2
-3 7 0 19 6 25 6 6 9 11 7 12 -3 0 -13 2 -24 4 -13 3 -15 0 -8 -7z"/>
<path d="M7459 2320 c-1 -5 -3 -14 -4 -20 -1 -5 -3 -15 -4 -21 0 -5 -5 -8 -10
-5 -11 7 -9 -13 2 -31 8 -12 -4 -18 -27 -14 -5 1 -4 -5 4 -13 10 -13 10 -19 0
-31 -7 -8 -19 -15 -27 -15 -12 0 -13 -3 -4 -13 8 -11 6 -18 -8 -31 -19 -17
-20 -27 -7 -56 3 -9 5 -27 3 -40 -2 -14 2 -31 10 -38 7 -8 10 -19 6 -25 -4 -7
1 -6 10 2 23 18 34 7 16 -16 -12 -16 -12 -17 2 -6 9 7 19 10 22 6 4 -3 7 -1 7
5 0 7 5 12 11 12 5 0 7 -5 3 -12 -4 -6 -3 -8 4 -4 6 3 13 2 17 -4 7 -12 25 -4
25 12 0 5 -8 7 -17 4 -17 -7 -17 -6 -1 10 14 14 20 15 32 4 9 -7 16 -11 17 -9
7 36 6 40 -7 35 -19 -7 -18 4 4 20 16 13 15 15 -8 33 -14 11 -25 26 -25 33 -1
7 -7 12 -13 10 -7 -1 -21 2 -31 8 -10 5 -22 6 -26 2 -6 -7 -10 -8 -36 -11 -5
0 -8 -5 -5 -9 3 -5 -1 -9 -9 -9 -10 0 -12 4 -5 12 5 7 7 15 3 19 -4 4 1 4 12
0 15 -6 17 -4 12 10 -5 12 -3 15 6 10 7 -5 6 0 -3 12 -14 17 -13 18 1 7 9 -7
19 -10 22 -6 4 3 14 0 24 -8 9 -8 14 -9 10 -3 -3 6 0 11 8 11 8 0 11 -5 8 -10
-3 -6 -2 -8 3 -4 5 3 18 -1 29 -9 10 -8 14 -14 9 -14 -6 0 -11 -7 -11 -16 0
-12 5 -10 18 7 10 13 16 26 13 28 -2 2 1 10 8 18 8 10 8 17 -1 26 -10 9 -12 9
-9 -3 2 -8 -2 -14 -9 -13 -7 2 -10 -4 -7 -12 4 -8 1 -15 -6 -15 -6 0 -9 4 -6
9 3 4 -4 17 -17 27 -21 19 -21 19 -7 -1 7 -11 -2 -4 -21 15 -35 36 -44 56 -11
27 21 -20 32 -22 32 -6 0 5 -4 8 -9 5 -5 -3 -15 2 -22 12 -7 9 -9 14 -5 10 5
-4 15 -3 23 3 7 6 13 8 13 5 0 -4 10 3 23 16 12 13 16 16 8 6 -21 -27 -6 -33
25 -9 15 11 23 21 19 21 -5 0 -18 -8 -29 -17 -19 -15 -19 -15 1 7 19 21 24 22
39 9 15 -12 17 -12 9 0 -6 11 -5 12 6 5 19 -12 40 -14 34 -4 -3 5 -1 11 5 15
6 4 8 11 5 16 -4 5 -2 9 2 9 5 0 14 -9 21 -20 7 -11 17 -20 24 -20 6 0 3 9 -7
20 -10 11 -16 20 -14 21 26 6 57 4 52 -4 -3 -6 -1 -7 5 -3 27 16 8 23 -68 22
-44 0 -80 -4 -80 -8 0 -5 -5 -8 -11 -8 -5 0 -8 4 -5 9 7 10 -13 9 -31 -2 -6
-4 -13 -2 -15 5 -3 7 -7 5 -11 -6 -5 -12 -3 -15 6 -10 9 5 9 4 0 -7 -18 -19
-16 -32 3 -25 14 5 15 4 4 -9 -18 -22 -29 -18 -26 10 2 14 -1 22 -7 18 -6 -4
-7 -1 -2 7 6 9 4 11 -5 5 -9 -5 -11 -4 -6 4 4 6 12 9 17 6 5 -4 9 -1 9 4 0 14
-30 14 -31 1z m113 -14 c20 13 56 12 54 0 -3 -23 -18 -37 -29 -28 -7 5 -31 8
-54 7 -41 -1 -42 0 -26 17 12 13 19 15 29 7 7 -6 19 -7 26 -3z m-97 -55 c-2
-9 -4 -18 -4 -20 -1 -2 -8 2 -16 9 -11 9 -12 16 -2 30 13 21 27 9 22 -19z
m-12 -74 c15 -23 14 -23 -16 -21 -18 1 -34 3 -36 3 -4 1 30 41 34 41 2 0 10
-10 18 -23z m11 -137 c0 -27 -27 -35 -45 -14 -9 11 -9 17 0 28 18 21 45 13 45
-14z"/>
<path d="M7526 2302 c-3 -5 1 -9 9 -9 8 0 12 4 9 9 -3 4 -7 8 -9 8 -2 0 -6 -4
-9 -8z"/>
<path d="M7573 2297 c-3 -7 -3 -9 2 -5 4 4 14 3 21 -3 8 -7 14 -7 19 1 3 5 5
10 3 11 -27 6 -39 5 -45 -4z"/>
<path d="M7455 2261 c-3 -5 -2 -12 3 -15 5 -3 9 1 9 9 0 17 -3 19 -12 6z"/>
<path d="M7432 2177 c-8 -10 -6 -13 7 -13 11 0 17 6 14 13 -3 7 -6 13 -8 13
-1 0 -7 -6 -13 -13z"/>
<path d="M7434 2048 c-7 -11 2 -21 19 -24 7 -1 13 6 13 16 0 17 -23 23 -32 8z"/>
<path d="M7732 2310 c-8 -13 -17 -18 -25 -13 -7 4 -18 8 -25 9 -11 2 -11 -1 1
-14 8 -9 12 -23 10 -30 -4 -10 -11 -8 -29 9 -13 12 -25 19 -25 16 -1 -4 -2
-12 -3 -19 0 -7 -17 -13 -38 -13 -21 -1 -46 -9 -56 -18 -10 -9 -28 -15 -40
-12 -12 2 -24 -1 -28 -6 -3 -5 0 -8 8 -7 7 2 13 -5 13 -14 0 -9 4 -20 8 -24
11 -11 38 -14 32 -4 -13 20 15 18 29 -2 9 -12 16 -18 16 -12 0 6 7 11 15 11
15 0 16 -3 19 -29 0 -7 6 -13 11 -13 19 0 35 -16 28 -28 -3 -6 7 -1 24 11 17
12 34 18 38 14 5 -4 5 -2 1 5 -12 21 12 24 27 2 l15 -21 7 21 c3 12 11 18 17
15 6 -4 5 -9 -3 -15 -12 -7 -11 -10 1 -21 8 -7 11 -9 7 -4 -4 5 -2 15 4 23 6
7 8 13 5 13 -4 0 3 11 16 25 22 23 41 27 64 12 7 -4 18 1 25 10 12 14 12 16
-1 8 -8 -4 -12 -5 -8 0 4 4 2 15 -5 24 -11 14 -10 15 8 1 19 -14 19 -14 6 2
-7 10 -17 15 -22 12 -5 -3 -9 0 -9 5 0 16 15 13 32 -6 9 -10 14 -28 12 -40 -3
-19 1 -22 29 -20 27 2 32 -1 31 -21 -1 -17 1 -20 12 -11 7 6 19 7 26 3 7 -5
21 -9 31 -9 10 0 22 -7 27 -15 6 -9 10 -10 10 -3 0 7 10 2 23 -10 13 -12 21
-26 19 -32 -3 -5 13 7 35 28 21 20 42 34 46 31 4 -4 13 -1 21 6 12 10 21 8 44
-9 32 -22 49 -18 30 8 -10 13 -10 14 2 4 17 -15 44 -17 35 -3 -4 6 -10 8 -15
5 -5 -3 -14 3 -19 13 -9 17 -7 19 22 17 18 -2 33 -4 35 -5 1 -1 5 -3 10 -4 4
-1 13 -5 20 -10 22 -14 26 2 7 24 -14 15 -16 23 -7 32 9 9 16 7 30 -5 23 -21
34 -22 30 -1 -2 10 5 18 15 20 25 3 31 11 33 38 1 20 -4 23 -28 21 -29 -3 -46
9 -28 20 25 16 3 21 -80 21 -49 0 -90 -4 -90 -9 0 -4 4 -6 9 -3 8 5 49 -32 44
-40 -2 -2 -3 -5 -2 -6 7 -18 3 -58 -5 -58 -6 0 -4 -5 4 -11 13 -9 12 -10 -3
-5 -13 4 -16 2 -11 -7 5 -7 0 -5 -11 3 -17 13 -18 13 -11 0 4 -8 0 -6 -10 5
-11 13 -15 15 -11 4 4 -11 -2 -15 -23 -15 -21 0 -27 4 -23 15 4 11 0 9 -11 -4
-10 -11 -14 -13 -10 -5 7 13 6 13 -11 0 -17 -13 -18 -13 -10 0 7 12 6 13 -7 3
-19 -17 -32 -4 -15 15 8 11 8 14 0 9 -17 -10 -10 22 8 34 10 8 8 9 -8 4 -14
-4 -23 -2 -23 4 0 6 -5 11 -11 11 -5 0 -7 -5 -3 -12 5 -7 3 -8 -6 -3 -9 5 -11
4 -6 -4 4 -6 12 -9 17 -6 5 4 9 1 9 -5 0 -7 -7 -10 -17 -6 -15 5 -14 3 2 -9
11 -9 20 -20 20 -25 0 -5 6 -15 13 -21 6 -7 12 -17 12 -23 0 -5 -6 -2 -13 8
-12 16 -13 16 -13 -3 0 -11 5 -17 11 -13 5 3 4 -2 -4 -12 -12 -14 -12 -19 -2
-26 8 -4 9 -10 3 -14 -11 -7 -25 21 -17 34 3 5 -3 7 -15 5 -11 -2 -22 1 -25 6
-4 5 -11 6 -17 3 -7 -5 -8 -2 -3 6 5 8 4 11 -2 7 -5 -3 -10 0 -10 8 0 8 5 11
11 8 6 -4 4 2 -4 13 -11 15 -11 16 0 7 8 -7 18 -13 24 -13 5 0 1 7 -10 15 -13
11 -14 14 -4 13 8 -2 18 -7 21 -11 3 -5 9 -2 12 7 3 8 1 18 -5 22 -7 5 -8 2
-3 -7 5 -8 -2 -5 -16 6 l-24 20 15 -20 c14 -19 14 -19 -4 -5 -16 12 -18 12
-11 1 9 -16 -8 -8 -38 17 -25 22 -34 6 -11 -20 l19 -23 -23 19 c-12 11 -20 26
-18 33 3 7 1 15 -4 18 -17 10 -11 28 6 21 14 -5 15 -4 5 8 -7 8 -19 12 -27 9
-13 -5 -12 -9 2 -32 17 -25 17 -26 -1 -11 -15 12 -17 12 -10 1 6 -10 4 -12 -5
-6 -9 5 -11 4 -6 -4 4 -6 12 -9 17 -6 5 4 9 1 9 -4 0 -16 -11 -13 -33 7 -15
12 -18 13 -12 2 8 -13 7 -13 -10 0 -17 13 -18 13 -11 0 4 -8 0 -6 -9 5 -9 11
-19 19 -23 18 -4 -1 -9 1 -12 4 -3 4 0 3 7 -1 8 -4 11 0 8 14 -5 28 9 25 25
-5 10 -18 17 -22 24 -15 8 8 6 14 -7 21 -18 11 -14 29 6 29 7 0 6 -4 -3 -10
-12 -7 -10 -9 7 -7 12 0 19 5 17 9 -3 4 2 5 10 2 9 -3 16 -2 16 3 0 4 -36 8
-80 9 -44 0 -80 -4 -80 -8 0 -4 -5 -8 -11 -8 -5 0 -8 4 -5 9 7 10 -13 9 -31
-2 -6 -4 -13 -3 -15 3 -2 6 -9 1 -16 -10z m80 -4 c36 23 64 8 45 -23 -4 -6 -3
-14 3 -18 6 -4 8 -11 4 -16 -3 -5 0 -17 7 -25 17 -21 21 -46 6 -37 -24 15 -43
11 -69 -13 -14 -14 -29 -26 -32 -25 -20 3 -26 -1 -21 -11 4 -7 -2 -3 -13 10
-20 22 -39 31 -27 13 3 -5 -7 -19 -21 -30 -24 -19 -29 -20 -44 -6 -9 8 -20 13
-23 10 -4 -3 -5 -2 -2 1 10 14 -16 43 -34 39 -11 -2 -25 3 -32 11 -10 13 -14
12 -29 -1 -12 -11 -20 -13 -25 -5 -3 6 -3 10 2 9 22 -4 25 2 7 16 -13 10 -14
13 -3 10 9 -3 22 1 29 9 7 9 16 13 21 10 5 -3 9 -1 9 4 0 5 7 9 16 9 15 0 15
-2 0 -13 -10 -7 -13 -15 -7 -18 5 -4 17 4 25 16 10 14 16 17 16 8 0 -9 4 -8
14 5 8 11 12 24 9 30 -4 5 5 -1 20 -13 25 -23 26 -23 36 -4 7 13 7 23 -2 32
-10 12 -9 12 4 2 13 -10 19 -9 29 3 7 8 16 13 20 10 5 -3 12 -1 15 5 5 8 11 8
20 0 8 -7 20 -8 27 -4z m617 -2 c-12 -14 9 -33 33 -29 10 2 20 -1 23 -5 3 -5
-4 -7 -15 -5 -14 3 -20 0 -17 -8 2 -7 13 -10 23 -9 10 2 16 1 12 -3 -3 -3 -12
-7 -20 -9 -24 -3 -38 -17 -31 -29 3 -7 -3 -3 -16 7 -20 18 -23 19 -38 3 -16
-15 -15 -18 3 -39 15 -18 15 -20 2 -9 -10 7 -18 10 -18 6 0 -4 -6 -2 -13 4 -8
6 -16 9 -19 6 -2 -3 -4 12 -3 33 1 20 -3 43 -8 50 -5 6 -6 12 -2 12 5 0 1 8
-8 18 -15 16 -12 17 53 17 50 0 66 -3 59 -11z m-487 -95 l-3 -24 17 23 16 23
24 -22 c30 -28 44 -17 18 13 l-19 22 25 -19 c30 -21 38 -84 11 -80 -8 1 -17 7
-19 14 -3 9 -8 9 -20 -1 -9 -7 -13 -8 -9 -2 10 16 -15 34 -41 29 -15 -2 -19 0
-15 11 3 8 0 21 -6 28 -10 12 -9 14 6 11 12 -2 17 -10 15 -26z m345 -42 c12
-13 -20 -27 -34 -15 -9 7 -17 7 -26 -1 -8 -6 -17 -8 -20 -4 -4 3 -18 -4 -31
-16 -13 -12 -27 -18 -30 -13 -3 5 1 15 10 22 8 7 13 18 11 24 -5 13 107 15
120 3z m-173 -53 c3 -8 2 -12 -4 -9 -6 3 -10 10 -10 16 0 14 7 11 14 -7z"/>
<path d="M7766 2302 c-4 -4 -12 -7 -18 -7 -5 0 -23 -16 -39 -35 -26 -32 -30
-33 -40 -17 -5 9 -15 15 -20 12 -5 -4 -7 -11 -4 -16 4 -5 1 -10 -4 -10 -6 -1
-15 -2 -20 -3 -6 0 -16 -7 -22 -13 -10 -10 -16 -10 -29 2 -15 14 -19 14 -31
-2 -8 -9 -9 -14 -3 -10 7 4 17 0 24 -7 6 -8 20 -13 30 -11 12 2 28 -9 45 -31
25 -33 28 -34 48 -21 12 8 22 19 22 25 0 22 17 26 31 8 8 -11 14 -15 14 -8 0
6 9 9 19 7 11 -2 29 7 42 21 15 16 30 22 47 19 23 -4 24 -3 7 15 -9 10 -14 23
-11 29 4 5 2 13 -4 16 -8 5 -7 11 1 21 6 8 9 15 5 15 -23 5 -32 4 -43 -4 -8
-6 -18 -5 -26 2 -8 6 -17 7 -21 3z m46 -16 c21 14 43 15 30 2 -8 -8 -8 -15 -1
-24 7 -8 7 -14 -1 -19 -8 -5 -5 -12 7 -22 10 -8 12 -11 5 -8 -8 4 -25 -3 -40
-17 -28 -26 -76 -32 -78 -10 -1 6 -2 15 -3 19 0 4 -9 -4 -18 -17 -10 -14 -17
-28 -16 -32 2 -4 -6 -12 -16 -17 -14 -8 -22 -7 -31 4 -7 8 -9 15 -4 15 5 0 -3
8 -16 17 -14 10 -29 17 -34 15 -5 -2 -4 4 3 12 7 8 21 13 32 11 10 -2 19 1 19
7 0 5 7 7 16 4 9 -3 27 3 41 14 14 11 22 20 18 20 -4 0 -2 7 5 15 7 8 16 13
20 10 5 -3 12 -1 15 5 5 8 11 8 20 0 8 -7 20 -8 27 -4z m-241 -83 c13 -16 12
-17 -3 -4 -10 7 -18 15 -18 17 0 8 8 3 21 -13z"/>
<path d="M7766 2282 c-4 -4 -13 -7 -19 -7 -7 0 -13 -6 -13 -12 -1 -7 -2 -18
-3 -24 0 -5 -5 -8 -10 -5 -5 3 -14 -1 -21 -10 -7 -8 -19 -13 -26 -10 -7 3 -16
1 -19 -4 -3 -5 -15 -7 -26 -5 -17 4 -19 2 -9 -10 7 -8 16 -12 21 -9 5 3 10 0
10 -5 1 -6 2 -15 3 -21 0 -5 4 -10 9 -10 4 0 12 0 17 0 6 0 9 3 8 8 -1 4 6 19
16 35 14 21 22 25 32 16 8 -6 12 -15 9 -19 -2 -4 7 -6 20 -6 24 2 69 35 60 44
-3 3 0 11 6 18 7 8 7 14 -1 19 -6 3 -7 12 -3 18 4 7 0 6 -10 -2 -13 -10 -20
-11 -30 -2 -8 6 -17 7 -21 3z m40 -21 c20 3 26 -2 16 -13 -6 -7 -11 -17 -11
-21 0 -4 -7 -14 -15 -22 -12 -13 -15 -13 -20 0 -3 8 -11 15 -18 14 -10 0 -10
-2 0 -6 6 -2 12 -9 12 -15 0 -6 -9 -3 -20 7 -14 13 -17 22 -10 35 5 10 6 21 2
25 -4 5 -2 5 5 1 6 -3 15 -2 18 4 5 8 11 8 20 0 7 -6 17 -10 21 -9z m-106 -61
c-17 -25 -25 -28 -36 -19 -8 6 -11 15 -8 21 4 5 10 5 18 -1 8 -7 15 -4 24 10
7 10 15 19 18 19 3 0 -4 -14 -16 -30z"/>
<path d="M7763 2258 c-20 -26 -26 -41 -14 -34 6 4 17 3 24 -3 8 -6 18 -6 27
-1 8 6 11 10 6 10 -5 0 -2 8 5 17 10 12 11 15 1 9 -7 -4 -19 -3 -26 3 -10 8
-16 8 -23 -1z m23 -24 c2 -12 -1 -13 -12 -3 -7 6 -11 16 -8 21 7 11 17 3 20
-18z"/>
<path d="M8331 2294 c6 -8 8 -14 4 -14 -4 0 -3 -6 2 -12 6 -7 9 -25 8 -41 -1
-15 5 -32 14 -39 13 -10 14 -10 4 1 -9 11 -6 18 15 36 23 20 28 21 37 8 10
-13 13 -13 24 1 10 12 10 16 2 16 -7 0 -10 4 -7 9 3 5 -1 14 -9 21 -8 7 -13
15 -11 19 3 4 -6 7 -20 7 -17 0 -23 -4 -19 -14 3 -7 5 -16 5 -18 0 -3 5 -2 10
1 6 4 7 12 4 18 -4 7 -3 8 1 4 13 -11 15 -38 3 -31 -7 5 -8 2 -3 -7 7 -11 5
-11 -10 1 -11 8 -16 10 -11 3 5 -9 2 -11 -9 -6 -13 4 -14 7 -3 14 15 10 -1 31
-27 35 -13 2 -14 -1 -4 -12z m24 -3 c3 -5 2 -12 -3 -15 -5 -3 -9 1 -9 9 0 17
3 19 12 6z m72 -43 c4 -28 -6 -18 -12 12 -2 12 -1 20 2 16 4 -4 8 -16 10 -28z
m-57 -13 c0 -8 -4 -15 -8 -15 -5 0 -9 7 -9 15 0 8 4 15 9 15 4 0 8 -7 8 -15z"/>
<path d="M7966 2212 c-3 -5 3 -17 14 -27 11 -10 20 -14 20 -9 0 5 7 1 14 -9 8
-10 16 -15 19 -10 6 11 -60 66 -67 55z m25 -19 c13 -16 12 -17 -3 -4 -10 7
-18 15 -18 17 0 8 8 3 21 -13z"/>
<path d="M8166 2142 l-19 -27 24 22 c12 12 21 24 18 27 -2 2 -13 -8 -23 -22z"/>
<path d="M8206 2158 c3 -5 10 -6 15 -3 13 9 11 12 -6 12 -8 0 -12 -4 -9 -9z"/>
<path d="M8256 2158 c3 -5 10 -6 15 -3 13 9 11 12 -6 12 -8 0 -12 -4 -9 -9z"/>
<path d="M7981 2324 c-1 -6 6 -17 14 -24 8 -7 15 -17 15 -22 0 -6 -7 -8 -15
-4 -23 8 -18 2 16 -23 24 -18 33 -20 39 -10 7 10 11 10 24 0 14 -12 20 -9 18
11 -1 3 5 12 14 19 11 9 18 9 26 1 6 -6 16 -8 23 -6 7 3 16 1 20 -5 3 -6 -1
-14 -10 -17 -13 -5 -14 -9 -4 -15 10 -6 10 -11 -2 -26 -13 -16 -13 -17 4 -4 9
7 17 10 17 7 0 -4 9 -2 19 4 16 8 22 6 30 -7 11 -17 11 -17 22 0 8 13 14 15
29 7 15 -8 21 -6 28 7 8 16 8 35 2 48 -1 3 -3 9 -4 14 -1 12 -15 26 -27 27 -5
1 -14 2 -20 3 -5 0 -8 4 -6 9 3 4 -10 8 -29 8 -19 1 -34 -3 -34 -7 0 -5 6 -8
13 -6 6 1 11 -4 9 -11 -1 -8 2 -11 7 -8 5 3 8 -2 7 -12 0 -9 6 -17 14 -17 9 0
14 8 13 20 -1 18 -1 19 11 3 8 -12 16 -14 23 -7 6 6 10 5 10 -5 0 -8 -3 -13
-7 -11 -4 2 -7 -2 -7 -10 0 -8 4 -12 8 -9 4 2 11 -1 15 -7 4 -7 3 -9 -4 -5 -6
3 -14 2 -17 -4 -5 -8 -11 -7 -21 1 -12 9 -12 15 -2 28 12 14 11 14 -4 2 -15
-11 -21 -11 -35 0 -16 12 -17 12 -5 -2 10 -13 10 -19 -2 -28 -10 -9 -17 -7
-27 6 -8 9 -9 14 -3 10 6 -3 11 0 11 8 0 8 -5 11 -10 8 -6 -4 -7 -1 -2 7 6 9
4 11 -5 5 -9 -5 -11 -4 -6 3 5 8 1 10 -11 6 -15 -5 -16 -4 -3 5 12 9 13 11 1
11 -8 0 -11 3 -8 7 4 3 18 -4 32 -17 14 -13 25 -18 25 -12 0 6 -9 17 -20 25
-11 8 -18 16 -16 18 2 2 -11 5 -30 5 -19 1 -34 -3 -34 -8 0 -5 4 -7 9 -4 5 3
14 -1 20 -8 9 -11 9 -14 -1 -12 -25 5 -48 18 -44 25 2 3 -11 7 -30 7 -19 1
-34 -3 -34 -8 0 -5 4 -7 9 -4 5 3 14 -1 21 -9 7 -8 18 -15 24 -15 6 0 4 5 -4
10 -8 5 -10 10 -4 10 6 0 17 -7 24 -16 8 -8 9 -14 4 -13 -5 1 -16 1 -24 0 -13
-1 -13 -3 0 -11 10 -6 4 -8 -19 -6 -21 1 -37 9 -43 22 -9 18 -9 18 5 1 9 -11
18 -14 21 -8 4 5 -3 16 -14 24 -11 7 -17 18 -12 23 4 4 0 3 -10 -4 -13 -10
-17 -10 -21 0 -3 8 -6 8 -6 2z m264 -22 c-3 -3 -11 0 -18 7 -9 10 -8 11 6 5
10 -3 15 -9 12 -12z m5 -22 c0 -5 -4 -10 -10 -10 -5 0 -10 5 -10 10 0 6 5 10
10 10 6 0 10 -4 10 -10z m-205 -22 c5 4 5 1 1 -6 -6 -10 -11 -10 -22 -1 -8 6
-14 14 -14 16 0 3 6 0 13 -6 8 -6 18 -7 22 -3z m210 -27 c7 -12 -12 -24 -25
-16 -11 7 -4 25 10 25 5 0 11 -4 15 -9z"/>
<path d="M8049 2297 c6 -8 7 -18 3 -22 -4 -5 -1 -5 6 -1 10 6 10 11 1 22 -6 8
-14 14 -16 14 -3 0 0 -6 6 -13z"/>
<path d="M7934 2280 c0 -13 4 -16 10 -10 7 7 7 13 0 20 -6 6 -10 3 -10 -10z"/>
<path d="M8612 2275 c13 -14 -12 -34 -38 -29 -13 2 -24 1 -24 -4 0 -4 23 -8
52 -7 42 0 52 3 54 18 1 11 0 16 -3 13 -3 -3 -15 0 -27 6 -11 6 -18 7 -14 3z
m38 -30 c0 -2 -9 -3 -19 -2 -11 0 -18 5 -15 9 4 6 34 0 34 -7z"/>
<path d="M8203 2245 c0 -8 4 -12 9 -9 5 3 6 10 3 15 -9 13 -12 11 -12 -6z"/>
<path d="M8265 2251 c-3 -5 -2 -12 3 -15 5 -3 9 1 9 9 0 17 -3 19 -12 6z"/>
<path d="M8093 2184 c-22 -24 -15 -41 16 -40 17 1 28 26 11 26 -6 0 -9 -4 -6
-8 3 -5 -1 -9 -8 -9 -11 0 -12 4 -3 18 6 10 14 16 17 14 4 -2 7 2 7 10 0 20
-8 17 -34 -11z"/>
<path d="M8512 2194 c2 -10 -5 -18 -15 -20 -11 -1 -22 -5 -25 -9 -4 -3 6 -4
21 -1 16 3 25 1 22 -5 -4 -5 -1 -9 6 -9 8 0 7 -5 -2 -17 -12 -15 -12 -16 1 -8
13 8 13 7 0 -11 -14 -18 -14 -18 3 -5 9 7 17 10 17 6 0 -4 8 -1 17 6 9 8 14 9
10 3 -4 -7 1 -18 10 -25 14 -12 15 -11 8 11 -7 23 -6 24 7 6 11 -13 15 -15 15
-4 0 7 -12 22 -25 33 -14 10 -22 13 -18 7 13 -21 -13 -22 -28 -1 -16 24 -12
44 7 32 7 -4 6 0 -2 10 -17 22 -33 22 -29 1z"/>
<path d="M8310 2159 c0 -5 4 -8 9 -5 10 7 34 -18 25 -26 -3 -3 0 -9 7 -14 8
-4 10 -3 5 4 -4 7 -2 12 4 12 25 0 2 -23 -25 -26 -22 -2 -26 -1 -15 6 8 5 10
10 4 10 -6 0 -17 -7 -24 -15 -7 -8 -17 -12 -24 -8 -6 4 -3 -5 7 -20 9 -15 15
-27 12 -27 -2 0 0 -12 5 -26 6 -14 7 -23 2 -21 -4 3 -15 -5 -24 -18 -17 -22
-17 -24 6 -38 20 -14 26 -14 44 -1 12 8 23 10 27 5 7 -13 37 -6 69 14 26 17
37 33 14 19 -9 -5 -9 -2 1 9 11 14 11 17 0 17 -11 0 -11 2 0 9 8 5 16 17 17
25 1 9 -2 14 -7 10 -5 -3 -7 -10 -4 -15 4 -5 1 -9 -4 -9 -16 0 -13 16 4 30 12
10 16 10 20 -1 6 -17 2 -39 -8 -56 -5 -8 -3 -13 3 -13 7 0 9 -8 5 -20 -5 -15
0 -23 19 -32 14 -6 26 -15 26 -20 0 -4 5 -8 11 -8 5 0 8 4 5 9 -3 5 1 14 9 21
9 7 12 17 7 24 -13 17 2 71 17 61 8 -4 51 48 51 61 0 3 -6 4 -14 1 -8 -3 -20
0 -26 8 -6 7 -19 12 -28 10 -9 -2 -19 -4 -21 -4 -3 -1 8 -14 24 -31 16 -16 25
-33 22 -37 -4 -3 -7 -1 -7 7 0 10 -3 10 -15 0 -8 -7 -12 -16 -9 -21 3 -5 -2
-6 -11 -2 -9 3 -13 9 -8 12 13 10 14 31 1 31 -9 0 -8 3 2 10 12 8 12 10 -3 16
-12 4 -16 14 -12 34 7 37 -7 45 -36 21 -23 -19 -9 -25 17 -9 6 4 11 1 11 -5 0
-17 -38 -19 -57 -3 -8 7 -22 12 -30 11 -8 0 -18 4 -22 10 -4 5 -12 11 -18 11
-5 1 -11 2 -12 3 -11 9 -48 9 -48 0z m110 -39 c0 13 2 13 9 0 6 -8 7 -18 4
-23 -6 -10 -33 11 -33 27 0 6 5 4 10 -4 9 -13 10 -13 10 0z m152 -38 c8 -6 19
-8 24 -4 4 4 2 -1 -5 -10 -17 -22 -13 -23 -40 6 -16 17 -19 24 -8 22 8 -1 21
-7 29 -14z m-267 -2 c3 -5 1 -10 -4 -10 -6 0 -11 5 -11 10 0 6 2 10 4 10 3 0
8 -4 11 -10z m80 -74 c1 -32 -1 -52 -5 -46 -4 7 -6 25 -5 41 1 16 -1 26 -5 24
-5 -3 -7 -13 -6 -23 2 -9 -2 -20 -8 -24 -8 -5 -7 -8 2 -8 6 0 12 -5 12 -11 0
-8 -4 -8 -14 0 -10 9 -12 20 -6 41 4 16 6 31 3 34 -9 9 7 38 19 34 7 -3 12
-28 13 -62z m142 -11 c0 -8 -4 -12 -9 -9 -4 3 -8 9 -8 15 0 5 4 9 8 9 5 0 9
-7 9 -15z m-224 -33 c-6 -15 -5 -15 10 -3 9 7 17 9 17 3 0 -17 -30 -23 -36 -7
-4 8 -11 12 -18 8 -6 -4 -5 1 3 10 16 20 33 13 24 -11z m188 -4 c0 -10 2 -10
6 0 5 14 29 16 37 3 3 -5 -2 -15 -12 -22 -15 -13 -16 -12 -3 4 8 10 9 17 3 17
-6 0 -13 -4 -17 -10 -7 -11 -35 -2 -35 11 0 14 20 11 21 -3z"/>
<path d="M8550 2086 c0 -2 8 -10 18 -17 15 -13 16 -12 3 4 -13 16 -21 21 -21
13z"/>
<path d="M8365 2049 c-4 -6 -5 -12 -2 -15 2 -3 7 2 10 11 7 17 1 20 -8 4z"/>
<path d="M7425 2129 c-4 -6 -4 -13 -1 -16 3 -4 6 -1 6 6 0 8 6 11 16 7 8 -3
12 -2 9 4 -8 13 -22 13 -30 -1z"/>
<path d="M7470 2120 c0 -5 9 -8 20 -7 21 1 18 10 -5 13 -8 1 -15 -2 -15 -6z"/>
<path d="M7973 2105 c4 -5 -1 -17 -10 -27 -22 -25 -28 -54 -7 -37 8 6 12 14 9
17 -3 3 2 13 11 23 12 14 13 18 2 25 -7 4 -10 3 -5 -1z"/>
<path d="M8533 2055 c0 -8 4 -12 9 -9 5 3 6 10 3 15 -9 13 -12 11 -12 -6z"/>
<path d="M7879 2008 c9 -13 10 -18 2 -18 -7 0 -10 -4 -6 -9 3 -5 1 -12 -5 -16
-6 -4 -8 -11 -4 -16 3 -5 9 -7 14 -4 4 3 10 -2 13 -10 4 -9 1 -12 -9 -8 -19 7
-18 -11 1 -27 9 -7 14 -19 11 -26 -8 -21 21 -39 39 -24 8 7 12 16 9 21 -6 10
44 80 54 76 4 -1 7 2 7 8 0 5 -8 11 -19 12 -13 2 -16 -1 -13 -12 7 -18 -8 -29
-25 -18 -7 4 -20 8 -28 8 -8 0 -14 8 -14 17 1 10 -3 15 -9 11 -6 -4 -8 0 -4
10 3 9 -1 21 -11 29 -15 12 -16 11 -3 -4z m69 -82 c11 -6 7 -15 -15 -39 -23
-24 -24 -29 -8 -23 15 5 17 4 8 -5 -13 -13 -37 -3 -27 12 3 6 -2 19 -12 30
-14 16 -15 20 -4 17 8 -2 14 2 13 8 -2 12 26 12 45 0z"/>
<path d="M7915 1916 c-14 -10 -15 -15 -6 -21 8 -4 19 -1 28 8 20 19 1 30 -22
13z m20 -6 c-3 -5 -12 -10 -18 -10 -7 0 -6 4 3 10 19 12 23 12 15 0z"/>
<path d="M8098 1969 c-18 -17 -28 -28 -21 -25 6 4 19 -4 27 -16 9 -12 23 -23
33 -24 15 -2 14 0 -4 16 -19 15 -20 20 -9 29 10 8 16 9 21 1 3 -5 12 -10 18
-10 8 0 8 3 -1 9 -8 4 -14 12 -14 17 0 5 -5 8 -10 6 -6 -2 -8 4 -5 13 9 22 1
19 -35 -16z m21 -15 c-6 -7 -15 -11 -21 -8 -5 3 -4 12 3 20 6 7 15 11 21 8 5
-3 4 -12 -3 -20z"/>
<path d="M7277 1956 c-4 -10 -12 -14 -18 -10 -7 4 -9 3 -5 -4 3 -6 -2 -15 -11
-21 -12 -7 -13 -10 -4 -11 10 0 11 -3 2 -14 -10 -11 -9 -14 1 -12 7 1 19 5 26
10 20 12 38 -9 23 -28 -8 -10 -9 -16 -1 -21 5 -3 10 -3 10 1 0 3 6 1 14 -5 10
-8 16 -9 21 -1 3 5 4 11 1 11 -3 1 -10 3 -16 4 -5 1 -12 3 -15 4 -3 0 0 11 6
23 l11 21 18 -23 c15 -21 48 -21 35 0 -3 4 2 11 11 14 8 3 12 11 9 16 -5 8
-11 7 -20 0 -11 -9 -22 -6 -49 15 -19 15 -37 32 -39 38 -2 6 -6 3 -10 -7z m45
-41 c3 3 15 -6 28 -20 13 -14 19 -25 14 -25 -5 0 -15 9 -22 21 -10 15 -16 18
-26 10 -9 -7 -16 -7 -24 1 -8 8 -15 8 -26 -1 -11 -10 -14 -9 -12 2 1 8 8 23
16 32 13 16 15 16 31 -4 9 -11 19 -18 21 -16z"/>
<path d="M7269 1923 c-10 -12 -11 -15 -1 -9 7 4 20 2 29 -6 15 -12 15 -11 4
10 -14 26 -15 27 -32 5z"/>
<path d="M7620 1961 c-8 -6 -19 -7 -25 -4 -5 4 -6 2 -2 -2 13 -15 35 -14 41 1
6 16 6 17 -14 5z"/>
<path d="M7510 1919 c0 -4 8 -10 18 -14 16 -6 16 -8 -3 -22 l-20 -16 20 7 c17
5 16 3 -5 -15 -23 -19 -23 -19 -2 -9 18 9 23 8 28 -4 3 -9 17 -13 40 -12 47 4
63 20 34 36 -13 7 -20 8 -16 2 3 -6 2 -13 -3 -16 -14 -9 -31 19 -26 44 3 17 2
21 -6 13 -12 -12 -42 -6 -34 6 2 4 -2 8 -10 8 -8 0 -15 -4 -15 -8z m55 -30
c-4 -5 1 -19 10 -29 12 -13 13 -18 3 -16 -29 4 -38 17 -28 37 6 10 13 19 16
19 3 0 2 -5 -1 -11z"/>
<path d="M7595 1920 c-3 -5 -1 -10 4 -10 6 0 11 5 11 10 0 6 -2 10 -4 10 -3 0
-8 -4 -11 -10z"/>
<path d="M8392 1914 c-12 -8 -20 -20 -16 -25 3 -6 -2 -19 -12 -30 -15 -17 -16
-22 -4 -29 8 -5 19 -5 25 0 6 5 23 7 38 4 30 -5 35 7 12 26 -9 7 -14 19 -11
26 3 7 1 16 -5 19 -5 4 -7 11 -4 16 9 13 3 11 -23 -7z m20 -24 c-2 -7 5 -21
14 -31 15 -17 15 -18 -9 -13 -14 2 -29 0 -32 -6 -4 -6 -11 -8 -17 -4 -5 4 2
19 19 37 20 21 23 28 10 24 -11 -4 -16 -3 -12 4 9 14 31 5 27 -11z"/>
<path d="M8379 1853 c-13 -16 -12 -17 3 -5 9 8 23 10 29 6 8 -4 9 -3 5 4 -10
17 -21 15 -37 -5z"/>
<path d="M8176 1912 c-3 -5 1 -9 9 -9 8 0 12 4 9 9 -3 4 -7 8 -9 8 -2 0 -6 -4
-9 -8z"/>
<path d="M8589 1888 c-14 -46 20 -73 51 -40 13 14 12 15 -5 9 -20 -7 -20 -7 0
9 20 16 20 16 -2 9 -14 -4 -23 -2 -23 4 0 9 -18 16 -21 9z m17 -34 c1 -9 0
-13 -4 -10 -3 4 -7 14 -8 22 -1 9 0 13 4 10 3 -4 7 -14 8 -22z"/>
</g>
</svg>
